<svg width="728" height="166" viewBox="0 0 728 166" fill="none" xmlns="http://www.w3.org/2000/svg">
<g filter="url(#filter0_d_10_19)">
<path d="M55.0154 106L151.015 92V56L60.0154 38C44.6821 34.6667 14.2155 36 15.0155 68C15.8155 100 42.0154 106.667 55.0154 106Z" fill="#AB947E"/>
</g>
<g filter="url(#filter1_d_10_19)">
<path d="M672.015 106L576.015 92V56L667.015 38C682.349 34.6667 712.815 36 712.015 68C711.215 100 685.015 106.667 672.015 106Z" fill="#AB947E"/>
</g>
<g filter="url(#filter2_d_10_19)">
<rect x="139.015" y="3" width="450" height="136" fill="#AB947E"/>
</g>
<path d="M139.015 138V45C281.415 113 498.349 73.3333 589.015 45V138H139.015Z" fill="#967D66"/>
<g filter="url(#filter3_i_10_19)">
<path d="M283.015 98.064C279.218 98.064 277.319 97.6373 277.319 96.784L275.975 71.12L268.167 97.104C267.997 97.616 266.546 97.872 263.815 97.872C261.085 97.872 259.677 97.6373 259.591 97.168L251.527 70.864L250.631 96.4C250.589 97.04 249.778 97.488 248.199 97.744C246.621 97.9573 245.298 98.064 244.231 98.064C243.207 98.064 242.205 98 241.223 97.872C239.175 97.5733 238.173 97.04 238.215 96.272L239.687 54.672C239.687 53.648 242.29 53.136 247.495 53.136C249.031 53.136 250.909 53.264 253.127 53.52C255.346 53.7333 256.583 54.1813 256.839 54.864L264.007 75.024L270.279 54.8C270.663 53.6907 273.607 53.136 279.111 53.136C280.69 53.136 282.567 53.264 284.743 53.52C286.962 53.7333 288.071 54.1387 288.071 54.736L289.927 96.72C289.927 97.1893 289.095 97.5307 287.431 97.744C285.767 97.9573 284.295 98.064 283.015 98.064ZM299.99 74.768C298.795 72.6347 298.198 70.9067 298.198 69.584C298.198 68.2187 298.561 67.344 299.286 66.96C301.718 65.8933 305.046 65.36 309.27 65.36C313.537 65.36 316.545 66.3627 318.294 68.368C320.043 70.3307 320.918 73.2533 320.918 77.136V87.248H323.094C323.819 87.248 324.374 87.6747 324.758 88.528C325.185 89.3813 325.398 90.5547 325.398 92.048C325.398 93.5413 325.014 95.0133 324.246 96.464C323.521 97.9147 322.518 98.64 321.238 98.64C318.934 98.64 317.078 98.0213 315.67 96.784C315.03 96.272 314.539 95.6533 314.198 94.928C312.235 97.4027 309.185 98.64 305.046 98.64C301.931 98.64 299.307 97.5307 297.174 95.312C295.041 93.0933 293.974 90.4693 293.974 87.44C293.974 80.4853 298.134 77.008 306.454 77.008H309.974V76.368C309.974 75.2587 309.782 74.5547 309.398 74.256C309.057 73.9147 308.225 73.744 306.902 73.744C305.281 73.744 302.977 74.0853 299.99 74.768ZM305.11 86.544C305.11 87.4827 305.366 88.208 305.878 88.72C306.39 89.1893 307.03 89.424 307.798 89.424C308.609 89.424 309.334 89.104 309.974 88.464V83.536H308.182C306.134 83.536 305.11 84.5387 305.11 86.544ZM347.644 52.624C350.759 52.624 353.49 53.072 355.836 53.968C358.226 54.8213 359.42 55.9947 359.42 57.488C359.42 58.9813 358.844 60.8373 357.692 63.056C356.583 65.232 355.644 66.32 354.876 66.32C354.663 66.32 354.407 66.2133 354.108 66C353.852 65.744 353.212 65.488 352.188 65.232C351.207 64.9333 350.354 64.784 349.628 64.784C347.154 64.784 345.148 65.6587 343.612 67.408C342.119 69.1573 341.372 71.8453 341.372 75.472C341.372 79.056 342.14 81.7227 343.676 83.472C345.255 85.2213 347.239 86.096 349.628 86.096C350.61 86.096 351.698 85.968 352.892 85.712C354.13 85.4133 355.004 85.008 355.516 84.496C355.602 84.4107 355.772 84.368 356.028 84.368C356.284 84.368 356.754 84.8587 357.436 85.84C358.162 86.7787 358.823 88.0373 359.42 89.616C360.018 91.152 360.316 92.3467 360.316 93.2C360.316 94.864 359.036 96.1867 356.476 97.168C353.916 98.1493 350.887 98.64 347.388 98.64C341.756 98.64 337.127 96.656 333.5 92.688C329.874 88.72 328.06 83.1307 328.06 75.92C328.06 68.6667 329.916 62.9707 333.628 58.832C337.383 54.6933 342.055 52.624 347.644 52.624ZM367.647 94.224C365.002 91.28 363.679 87.2053 363.679 82C363.679 76.7947 365.002 72.72 367.647 69.776C370.335 66.832 373.941 65.36 378.463 65.36C382.986 65.36 386.57 66.832 389.215 69.776C391.861 72.72 393.183 76.7947 393.183 82C393.183 87.2053 391.861 91.28 389.215 94.224C386.57 97.168 382.986 98.64 378.463 98.64C373.941 98.64 370.335 97.168 367.647 94.224ZM378.463 76.048C376.074 76.048 374.879 78.0107 374.879 81.936C374.879 85.8613 376.074 87.824 378.463 87.824C380.895 87.824 382.111 85.8613 382.111 81.936C382.111 78.0107 380.895 76.048 378.463 76.048ZM400.46 94.224C397.815 91.28 396.492 87.2053 396.492 82C396.492 76.7947 397.815 72.72 400.46 69.776C403.148 66.832 406.753 65.36 411.276 65.36C415.799 65.36 419.383 66.832 422.028 69.776C424.673 72.72 425.996 76.7947 425.996 82C425.996 87.2053 424.673 91.28 422.028 94.224C419.383 97.168 415.799 98.64 411.276 98.64C406.753 98.64 403.148 97.168 400.46 94.224ZM411.276 76.048C408.887 76.048 407.692 78.0107 407.692 81.936C407.692 85.8613 408.887 87.824 411.276 87.824C413.708 87.824 414.924 85.8613 414.924 81.936C414.924 78.0107 413.708 76.048 411.276 76.048ZM430.52 53.712C430.52 53.0293 432.462 52.688 436.344 52.688C439.971 52.816 441.784 53.0933 441.784 53.52V78.096L448.12 66.384C448.419 65.744 450.232 65.424 453.56 65.424C456.888 65.424 459.022 65.6373 459.96 66.064L451.64 79.632L461.24 97.616C461.326 97.7867 460.515 97.9147 458.808 98C457.144 98.128 455.758 98.192 454.648 98.192C450.552 98.192 448.355 98 448.056 97.616L441.72 83.408V97.552C441.72 98.1067 439.843 98.384 436.088 98.384C432.376 98.384 430.52 98.128 430.52 97.616V53.712ZM464.614 86.48C468.07 88.5707 470.801 89.616 472.806 89.616C474.086 89.616 474.726 89.168 474.726 88.272C474.726 87.632 473.617 86.8 471.398 85.776C466.065 83.6 463.398 80.0373 463.398 75.088C463.398 71.9307 464.55 69.52 466.854 67.856C469.158 66.192 471.91 65.36 475.11 65.36C478.353 65.36 481.084 65.7013 483.302 66.384C485.564 67.0667 486.694 67.9627 486.694 69.072C486.694 70.0107 486.225 71.248 485.286 72.784C484.39 74.32 483.772 75.152 483.43 75.28C481.596 74.256 479.612 73.744 477.478 73.744C476.326 73.744 475.75 74.1493 475.75 74.96C475.75 75.472 475.964 75.92 476.39 76.304C476.86 76.6453 477.692 77.0933 478.886 77.648C480.081 78.16 481.062 78.6293 481.83 79.056C482.641 79.4827 483.537 80.08 484.518 80.848C486.566 82.4693 487.59 84.5813 487.59 87.184C487.59 90.5973 486.46 93.3707 484.198 95.504C481.937 97.5947 478.524 98.64 473.958 98.64C470.929 98.64 468.177 98.128 465.702 97.104C463.228 96.08 461.99 94.672 461.99 92.88C461.99 91.6853 462.268 90.4267 462.822 89.104C463.42 87.7813 464.017 86.9067 464.614 86.48Z" fill="#3E2C1B"/>
</g>
<g filter="url(#filter4_i_10_19)">
<mask id="mask0_10_19" style="mask-type:alpha" maskUnits="userSpaceOnUse" x="238" y="52" width="250" height="47">
<path d="M283.015 98.064C279.218 98.064 277.319 97.6373 277.319 96.784L275.975 71.12L268.167 97.104C267.997 97.616 266.546 97.872 263.815 97.872C261.085 97.872 259.677 97.6373 259.591 97.168L251.527 70.864L250.631 96.4C250.589 97.04 249.778 97.488 248.199 97.744C246.621 97.9573 245.298 98.064 244.231 98.064C243.207 98.064 242.205 98 241.223 97.872C239.175 97.5733 238.173 97.04 238.215 96.272L239.687 54.672C239.687 53.648 242.29 53.136 247.495 53.136C249.031 53.136 250.909 53.264 253.127 53.52C255.346 53.7333 256.583 54.1813 256.839 54.864L264.007 75.024L270.279 54.8C270.663 53.6907 273.607 53.136 279.111 53.136C280.69 53.136 282.567 53.264 284.743 53.52C286.962 53.7333 288.071 54.1387 288.071 54.736L289.927 96.72C289.927 97.1893 289.095 97.5307 287.431 97.744C285.767 97.9573 284.295 98.064 283.015 98.064ZM299.99 74.768C298.795 72.6347 298.198 70.9067 298.198 69.584C298.198 68.2187 298.561 67.344 299.286 66.96C301.718 65.8933 305.046 65.36 309.27 65.36C313.537 65.36 316.545 66.3627 318.294 68.368C320.043 70.3307 320.918 73.2533 320.918 77.136V87.248H323.094C323.819 87.248 324.374 87.6747 324.758 88.528C325.185 89.3813 325.398 90.5547 325.398 92.048C325.398 93.5413 325.014 95.0133 324.246 96.464C323.521 97.9147 322.518 98.64 321.238 98.64C318.934 98.64 317.078 98.0213 315.67 96.784C315.03 96.272 314.539 95.6533 314.198 94.928C312.235 97.4027 309.185 98.64 305.046 98.64C301.931 98.64 299.307 97.5307 297.174 95.312C295.041 93.0933 293.974 90.4693 293.974 87.44C293.974 80.4853 298.134 77.008 306.454 77.008H309.974V76.368C309.974 75.2587 309.782 74.5547 309.398 74.256C309.057 73.9147 308.225 73.744 306.902 73.744C305.281 73.744 302.977 74.0853 299.99 74.768ZM305.11 86.544C305.11 87.4827 305.366 88.208 305.878 88.72C306.39 89.1893 307.03 89.424 307.798 89.424C308.609 89.424 309.334 89.104 309.974 88.464V83.536H308.182C306.134 83.536 305.11 84.5387 305.11 86.544ZM347.644 52.624C350.759 52.624 353.49 53.072 355.836 53.968C358.226 54.8213 359.42 55.9947 359.42 57.488C359.42 58.9813 358.844 60.8373 357.692 63.056C356.583 65.232 355.644 66.32 354.876 66.32C354.663 66.32 354.407 66.2133 354.108 66C353.852 65.744 353.212 65.488 352.188 65.232C351.207 64.9333 350.354 64.784 349.628 64.784C347.154 64.784 345.148 65.6587 343.612 67.408C342.119 69.1573 341.372 71.8453 341.372 75.472C341.372 79.056 342.14 81.7227 343.676 83.472C345.255 85.2213 347.239 86.096 349.628 86.096C350.61 86.096 351.698 85.968 352.892 85.712C354.13 85.4133 355.004 85.008 355.516 84.496C355.602 84.4107 355.772 84.368 356.028 84.368C356.284 84.368 356.754 84.8587 357.436 85.84C358.162 86.7787 358.823 88.0373 359.42 89.616C360.018 91.152 360.316 92.3467 360.316 93.2C360.316 94.864 359.036 96.1867 356.476 97.168C353.916 98.1493 350.887 98.64 347.388 98.64C341.756 98.64 337.127 96.656 333.5 92.688C329.874 88.72 328.06 83.1307 328.06 75.92C328.06 68.6667 329.916 62.9707 333.628 58.832C337.383 54.6933 342.055 52.624 347.644 52.624ZM367.647 94.224C365.002 91.28 363.679 87.2053 363.679 82C363.679 76.7947 365.002 72.72 367.647 69.776C370.335 66.832 373.941 65.36 378.463 65.36C382.986 65.36 386.57 66.832 389.215 69.776C391.861 72.72 393.183 76.7947 393.183 82C393.183 87.2053 391.861 91.28 389.215 94.224C386.57 97.168 382.986 98.64 378.463 98.64C373.941 98.64 370.335 97.168 367.647 94.224ZM378.463 76.048C376.074 76.048 374.879 78.0107 374.879 81.936C374.879 85.8613 376.074 87.824 378.463 87.824C380.895 87.824 382.111 85.8613 382.111 81.936C382.111 78.0107 380.895 76.048 378.463 76.048ZM400.46 94.224C397.815 91.28 396.492 87.2053 396.492 82C396.492 76.7947 397.815 72.72 400.46 69.776C403.148 66.832 406.753 65.36 411.276 65.36C415.799 65.36 419.383 66.832 422.028 69.776C424.673 72.72 425.996 76.7947 425.996 82C425.996 87.2053 424.673 91.28 422.028 94.224C419.383 97.168 415.799 98.64 411.276 98.64C406.753 98.64 403.148 97.168 400.46 94.224ZM411.276 76.048C408.887 76.048 407.692 78.0107 407.692 81.936C407.692 85.8613 408.887 87.824 411.276 87.824C413.708 87.824 414.924 85.8613 414.924 81.936C414.924 78.0107 413.708 76.048 411.276 76.048ZM430.52 53.712C430.52 53.0293 432.462 52.688 436.344 52.688C439.971 52.816 441.784 53.0933 441.784 53.52V78.096L448.12 66.384C448.419 65.744 450.232 65.424 453.56 65.424C456.888 65.424 459.022 65.6373 459.96 66.064L451.64 79.632L461.24 97.616C461.326 97.7867 460.515 97.9147 458.808 98C457.144 98.128 455.758 98.192 454.648 98.192C450.552 98.192 448.355 98 448.056 97.616L441.72 83.408V97.552C441.72 98.1067 439.843 98.384 436.088 98.384C432.376 98.384 430.52 98.128 430.52 97.616V53.712ZM464.614 86.48C468.07 88.5707 470.801 89.616 472.806 89.616C474.086 89.616 474.726 89.168 474.726 88.272C474.726 87.632 473.617 86.8 471.398 85.776C466.065 83.6 463.398 80.0373 463.398 75.088C463.398 71.9307 464.55 69.52 466.854 67.856C469.158 66.192 471.91 65.36 475.11 65.36C478.353 65.36 481.084 65.7013 483.302 66.384C485.564 67.0667 486.694 67.9627 486.694 69.072C486.694 70.0107 486.225 71.248 485.286 72.784C484.39 74.32 483.772 75.152 483.43 75.28C481.596 74.256 479.612 73.744 477.478 73.744C476.326 73.744 475.75 74.1493 475.75 74.96C475.75 75.472 475.964 75.92 476.39 76.304C476.86 76.6453 477.692 77.0933 478.886 77.648C480.081 78.16 481.062 78.6293 481.83 79.056C482.641 79.4827 483.537 80.08 484.518 80.848C486.566 82.4693 487.59 84.5813 487.59 87.184C487.59 90.5973 486.46 93.3707 484.198 95.504C481.937 97.5947 478.524 98.64 473.958 98.64C470.929 98.64 468.177 98.128 465.702 97.104C463.228 96.08 461.99 94.672 461.99 92.88C461.99 91.6853 462.268 90.4267 462.822 89.104C463.42 87.7813 464.017 86.9067 464.614 86.48Z" fill="#3E2C1B"/>
</mask>
<g mask="url(#mask0_10_19)">
<path d="M139.015 138V45C281.415 113 498.349 73.3333 589.015 45V138H139.015Z" fill="#20170E"/>
</g>
</g>
<g filter="url(#filter5_d_10_19)">
<path d="M454.015 3.08704C456.293 2.97857 458.937 2.96364 461.762 3.08704H583.015C575.682 7.08704 559.615 18.287 554.015 31.087C547.015 47.087 553.015 78.087 570.015 99.087C587.015 120.087 520.015 142.087 536.015 105.087C552.015 68.087 520.015 14.087 510.015 22.087C500.015 30.087 505.015 31.087 510.015 55.087C515.015 79.087 506.015 81.087 495.015 78.087C484.015 75.087 494.015 43.087 495.015 22.087C495.685 8.0205 476.305 3.72208 461.762 3.08704H454.015Z" fill="#FFDE9D" fill-opacity="0.7" shape-rendering="crispEdges"/>
</g>
<path d="M145.015 94.2554V81.4585C97.191 97.0373 39.0886 81.644 16.0154 72C18.113 105.383 48.3528 111.132 63.2106 109.834L145.015 94.2554Z" fill="#967D65"/>
<path d="M582.015 95.2554V82.4585C629.84 98.0373 687.942 82.644 711.015 73C708.918 106.383 678.678 112.132 663.82 110.834L582.015 95.2554Z" fill="#967D65"/>
<defs>
<filter id="filter0_d_10_19" x="0" y="33.7544" width="166.015" height="99.2895" filterUnits="userSpaceOnUse" color-interpolation-filters="sRGB">
<feFlood flood-opacity="0" result="BackgroundImageFix"/>
<feColorMatrix in="SourceAlpha" type="matrix" values="0 0 0 0 0 0 0 0 0 0 0 0 0 0 0 0 0 0 127 0" result="hardAlpha"/>
<feOffset dy="12"/>
<feGaussianBlur stdDeviation="7.5"/>
<feComposite in2="hardAlpha" operator="out"/>
<feColorMatrix type="matrix" values="0 0 0 0 0 0 0 0 0 0 0 0 0 0 0 0 0 0 0.5 0"/>
<feBlend mode="normal" in2="BackgroundImageFix" result="effect1_dropShadow_10_19"/>
<feBlend mode="normal" in="SourceGraphic" in2="effect1_dropShadow_10_19" result="shape"/>
</filter>
<filter id="filter1_d_10_19" x="561.015" y="33.7544" width="166.015" height="99.2895" filterUnits="userSpaceOnUse" color-interpolation-filters="sRGB">
<feFlood flood-opacity="0" result="BackgroundImageFix"/>
<feColorMatrix in="SourceAlpha" type="matrix" values="0 0 0 0 0 0 0 0 0 0 0 0 0 0 0 0 0 0 127 0" result="hardAlpha"/>
<feOffset dy="12"/>
<feGaussianBlur stdDeviation="7.5"/>
<feComposite in2="hardAlpha" operator="out"/>
<feColorMatrix type="matrix" values="0 0 0 0 0 0 0 0 0 0 0 0 0 0 0 0 0 0 0.5 0"/>
<feBlend mode="normal" in2="BackgroundImageFix" result="effect1_dropShadow_10_19"/>
<feBlend mode="normal" in="SourceGraphic" in2="effect1_dropShadow_10_19" result="shape"/>
</filter>
<filter id="filter2_d_10_19" x="124.015" y="0" width="480" height="166" filterUnits="userSpaceOnUse" color-interpolation-filters="sRGB">
<feFlood flood-opacity="0" result="BackgroundImageFix"/>
<feColorMatrix in="SourceAlpha" type="matrix" values="0 0 0 0 0 0 0 0 0 0 0 0 0 0 0 0 0 0 127 0" result="hardAlpha"/>
<feOffset dy="12"/>
<feGaussianBlur stdDeviation="7.5"/>
<feComposite in2="hardAlpha" operator="out"/>
<feColorMatrix type="matrix" values="0 0 0 0 0 0 0 0 0 0 0 0 0 0 0 0 0 0 0.5 0"/>
<feBlend mode="normal" in2="BackgroundImageFix" result="effect1_dropShadow_10_19"/>
<feBlend mode="normal" in="SourceGraphic" in2="effect1_dropShadow_10_19" result="shape"/>
</filter>
<filter id="filter3_i_10_19" x="238.151" y="52.624" width="249.439" height="50.016" filterUnits="userSpaceOnUse" color-interpolation-filters="sRGB">
<feFlood flood-opacity="0" result="BackgroundImageFix"/>
<feBlend mode="normal" in="SourceGraphic" in2="BackgroundImageFix" result="shape"/>
<feColorMatrix in="SourceAlpha" type="matrix" values="0 0 0 0 0 0 0 0 0 0 0 0 0 0 0 0 0 0 127 0" result="hardAlpha"/>
<feOffset dy="4"/>
<feGaussianBlur stdDeviation="2"/>
<feComposite in2="hardAlpha" operator="arithmetic" k2="-1" k3="1"/>
<feColorMatrix type="matrix" values="0 0 0 0 0 0 0 0 0 0 0 0 0 0 0 0 0 0 0.6 0"/>
<feBlend mode="normal" in2="shape" result="effect1_innerShadow_10_19"/>
</filter>
<filter id="filter4_i_10_19" x="238.151" y="48.624" width="249.439" height="50.016" filterUnits="userSpaceOnUse" color-interpolation-filters="sRGB">
<feFlood flood-opacity="0" result="BackgroundImageFix"/>
<feBlend mode="normal" in="SourceGraphic" in2="BackgroundImageFix" result="shape"/>
<feColorMatrix in="SourceAlpha" type="matrix" values="0 0 0 0 0 0 0 0 0 0 0 0 0 0 0 0 0 0 127 0" result="hardAlpha"/>
<feOffset dy="-4"/>
<feGaussianBlur stdDeviation="2"/>
<feComposite in2="hardAlpha" operator="arithmetic" k2="-1" k3="1"/>
<feColorMatrix type="matrix" values="0 0 0 0 0 0 0 0 0 0 0 0 0 0 0 0 0 0 0.6 0"/>
<feBlend mode="normal" in2="shape" result="effect1_innerShadow_10_19"/>
</filter>
<filter id="filter5_d_10_19" x="450.015" y="3" width="137" height="130.015" filterUnits="userSpaceOnUse" color-interpolation-filters="sRGB">
<feFlood flood-opacity="0" result="BackgroundImageFix"/>
<feColorMatrix in="SourceAlpha" type="matrix" values="0 0 0 0 0 0 0 0 0 0 0 0 0 0 0 0 0 0 127 0" result="hardAlpha"/>
<feOffset dy="4"/>
<feGaussianBlur stdDeviation="2"/>
<feComposite in2="hardAlpha" operator="out"/>
<feColorMatrix type="matrix" values="0 0 0 0 0.345 0 0 0 0 0.345 0 0 0 0 0.345 0 0 0 0.25 0"/>
<feBlend mode="normal" in2="BackgroundImageFix" result="effect1_dropShadow_10_19"/>
<feBlend mode="normal" in="SourceGraphic" in2="effect1_dropShadow_10_19" result="shape"/>
</filter>
</defs>
</svg>
