<svg width="652" height="652" viewBox="0 0 652 652" fill="none" xmlns="http://www.w3.org/2000/svg">
<circle cx="326" cy="326" r="326" fill="#FFDE9D"/>
<path d="M553 289.5C553 314.517 548.073 339.289 538.499 362.401C528.926 385.514 514.893 406.514 497.204 424.204C479.514 441.893 458.514 455.926 435.401 465.499C412.289 475.073 387.517 480 362.5 480C337.483 480 312.711 475.073 289.599 465.499C266.486 455.926 245.486 441.893 227.796 424.204C210.107 406.514 196.074 385.514 186.501 362.401C176.927 339.289 172 314.517 172 289.5L362.5 289.5H553Z" fill="#D9D9D9"/>
<ellipse cx="362.5" cy="286.628" rx="190.5" ry="24.8894" fill="#C8C8C8"/>
<path d="M295 499.146L324.485 459.897H402.458L429.977 499.146H295Z" fill="#D9D9D9"/>
<path d="M71.1758 351.467L114.97 374.929L125.844 360.191L93.7769 325.149C88.4643 319.122 75.5051 310.403 66.1688 323.747C56.8324 337.091 65.6166 347.787 71.1758 351.467Z" fill="#AB947E"/>
<path d="M325.907 539.42L290.571 504.495L301.445 489.757L344.387 510.061C351.713 513.359 363.867 523.17 353.871 536.027C343.875 548.884 331.063 543.646 325.907 539.42Z" fill="#AB947E"/>
<rect x="137.395" y="334.641" width="230.817" height="69.6647" transform="rotate(36.4217 137.395 334.641)" fill="#AB947E"/>
<path d="M208.548 156.757C208.792 157.619 206.986 158.598 203.127 159.693C199.269 160.789 197.089 161.075 196.585 160.553L180.85 144.263L186.286 163.41C186.496 164.149 184.693 165.061 180.875 166.144C177.099 167.217 175.106 167.383 174.897 166.644L163.202 125.457C163.027 124.841 164.561 124.073 167.803 123.152C169.076 122.791 170.588 122.494 172.341 122.263C174.123 121.979 175.286 122.092 175.83 122.603L191.065 138.768L185.576 119.436C185.355 118.656 187.153 117.725 190.97 116.641C194.787 115.557 196.806 115.405 197.027 116.185L208.548 156.757Z" fill="#3E2C1B"/>
<path d="M221.603 151.496C218.446 149.108 216.374 145.359 215.385 140.248C214.396 135.138 214.92 130.886 216.958 127.493C219.038 124.092 222.298 121.962 226.738 121.103C231.178 120.243 234.977 121.008 238.133 123.395C241.29 125.783 243.362 129.532 244.351 134.643C245.34 139.753 244.816 144.005 242.778 147.398C240.74 150.791 237.501 152.917 233.061 153.776C228.62 154.636 224.801 153.875 221.603 151.496ZM228.769 131.596C226.423 132.05 225.623 134.204 226.368 138.058C227.114 141.911 228.66 143.611 231.006 143.157C233.394 142.695 234.214 140.537 233.469 136.684C232.723 132.83 231.156 131.134 228.769 131.596Z" fill="#3E2C1B"/>
<path d="M271.053 146.898C271.116 147.406 269.37 147.881 265.813 148.323C261.558 148.681 259.407 148.669 259.359 148.288L256.563 125.805L253.324 126.208C252.477 126.313 251.872 124.905 251.509 121.984C251.414 121.221 251.362 120.282 251.352 119.165C251.384 118.043 251.633 117.454 252.099 117.396L255.465 116.977L254.77 111.388C254.665 110.541 256.39 109.897 259.947 109.454C263.546 109.007 265.387 109.122 265.472 109.799L265.977 113.864L266.262 115.634L271.66 114.963C272.38 114.873 272.924 116.31 273.293 119.274C273.662 122.238 273.486 123.765 272.766 123.854L268.257 124.415L271.053 146.898Z" fill="#3E2C1B"/>
<path d="M304.338 121.154L301.203 121.245C300.563 121.264 300.203 119.866 300.12 117.051C300.037 114.193 300.315 112.755 300.955 112.737L304.09 112.645L304.048 111.238C303.917 106.717 304.764 103.576 306.591 101.816C308.459 100.011 311.099 99.0589 314.511 98.9593C317.923 98.8598 320.947 99.3904 323.585 100.551C323.93 100.669 324.114 101.133 324.138 101.944C324.16 102.711 323.835 103.98 323.161 105.75C322.487 107.52 321.897 108.54 321.393 108.811C319.917 107.957 318.411 107.553 316.876 107.598C315.212 107.647 314.413 108.78 314.478 110.997L314.517 112.341L319.827 112.186C320.595 112.163 321.018 113.517 321.098 116.247C321.185 119.232 320.738 120.739 319.757 120.768L315.663 120.887L316.324 143.533C316.339 144.045 314.448 144.356 310.653 144.467C306.9 144.577 305.016 144.376 305.001 143.864L304.338 121.154Z" fill="#3E2C1B"/>
<path d="M333.889 140.399C331.358 137.356 330.192 133.234 330.391 128.032C330.59 122.831 332.068 118.81 334.824 115.969C337.622 113.13 341.281 111.797 345.801 111.969C350.32 112.142 353.845 113.75 356.376 116.793C358.907 119.836 360.073 123.958 359.874 129.16C359.675 134.361 358.197 138.382 355.442 141.223C352.686 144.064 349.048 145.398 344.529 145.225C340.009 145.052 336.463 143.443 333.889 140.399ZM345.392 122.65C343.004 122.558 341.736 124.474 341.586 128.396C341.436 132.319 342.554 134.326 344.942 134.417C347.372 134.51 348.662 132.595 348.812 128.673C348.962 124.75 347.822 122.743 345.392 122.65Z" fill="#3E2C1B"/>
<path d="M371.703 114.416C371.758 113.95 373.607 113.931 377.252 114.358C380.896 114.785 382.691 115.232 382.636 115.698L380.46 134.259C380.212 136.378 380.766 137.517 382.122 137.676C383.139 137.795 384.335 137.484 385.711 136.743L388.103 116.339C388.153 115.915 389.978 115.914 393.58 116.337C397.182 116.759 398.959 117.182 398.909 117.606L396.465 138.455L398.117 138.649C399.558 138.818 400.117 140.279 399.794 143.034C399.63 144.432 399.167 145.817 398.405 147.188C397.339 148.954 396.085 149.752 394.645 149.583C391.805 149.25 389.844 147.839 388.762 145.349L388.691 145.405C385.837 147.39 382.928 148.209 379.961 147.861C375.851 147.38 372.94 146.007 371.229 143.745C369.523 141.44 368.949 137.914 369.505 133.168L371.703 114.416Z" fill="#3E2C1B"/>
<path d="M420.578 153.085C420.519 153.377 418.984 153.221 415.972 152.617C411.814 151.651 409.769 151.001 409.836 150.666L413.919 130.336L412.288 130.008C411.2 129.79 410.674 128.727 410.709 126.819C410.734 126.259 410.802 125.706 410.911 125.163C411.171 123.866 411.683 122.619 412.445 121.423C413.568 119.734 414.924 119.049 416.513 119.368C418.103 119.687 419.45 120.35 420.553 121.355C421.657 122.36 422.342 123.28 422.609 124.117C425.699 122.388 429.063 121.888 432.702 122.619C436.341 123.35 438.779 124.862 440.016 127.156C441.253 129.45 441.421 132.835 440.522 137.311L436.742 156.135C436.641 156.637 434.792 156.527 431.195 155.804C427.639 155.09 425.912 154.482 426.012 153.98L429.654 135.846C430.074 133.755 429.552 132.562 428.088 132.268C427.67 132.184 427.046 132.254 426.218 132.48C425.397 132.663 424.866 132.817 424.623 132.943L420.578 153.085Z" fill="#3E2C1B"/>
<path d="M474.768 121.001C474.946 120.386 476.653 120.547 479.891 121.484C480.998 121.804 482.245 122.254 483.632 122.833C485.072 123.383 485.756 123.781 485.685 124.027L476.309 156.425L478.461 157.048C479.485 157.345 479.895 158.462 479.689 160.402C479.617 160.958 479.444 161.708 479.172 162.65C478.911 163.552 478.303 164.576 477.35 165.721C476.009 167.287 474.436 167.809 472.633 167.287C471.28 166.896 470.148 166.28 469.237 165.439C468.366 164.609 467.83 163.854 467.627 163.174L467.305 162.215C464.422 163.734 461.28 164.002 457.878 163.018C454.476 162.033 451.976 159.777 450.376 156.249C448.776 152.722 448.706 148.437 450.165 143.396C451.635 138.314 454.038 134.768 457.374 132.757C460.722 130.705 464.301 130.231 468.113 131.334C469.22 131.654 470.311 132.103 471.387 132.681L474.768 121.001ZM466.619 141.562C464.324 140.898 462.577 142.635 461.379 146.775C460.774 148.865 460.664 150.476 461.046 151.609C461.441 152.7 462.028 153.359 462.807 153.584C463.627 153.821 464.506 153.698 465.445 153.215L468.47 142.764C467.892 142.152 467.275 141.752 466.619 141.562Z" fill="#3E2C1B"/>
<path d="M400.316 310.098C401.699 309.767 403.347 309.728 405.159 310.123C427.976 309.976 471.958 306.637 492.433 304.861C489.511 309.472 485.324 320.928 491.955 329.856C500.243 341.017 490.091 348.824 469.095 348.422C448.099 348.02 475.458 329.54 469.669 318.427C463.881 307.315 456.595 322.178 447.963 329.014C439.33 335.85 449.175 344.04 455.714 368.169C462.254 392.299 439.002 431.361 432.219 367.719C427.689 325.213 414.322 312.12 405.159 310.123C403.414 310.134 401.793 310.126 400.316 310.098Z" fill="#FFDE9D" fill-opacity="0.7"/>
</svg>
